# xmcd
#
# Track frame offsets:
#	150
#	32831
#	57839
#	70621
#	81367
#	97209
#	115339
#	130049
#	146909
#	164617
#	180796
#	202967
#
# Disc length: 2977 seconds
#
# Revision: 1
# Processed by: cddbd v1.5.1PL0 Copyright (c) Steve Scherf et al.
# Submitted via: audiograbber 1.82.01
#
DISCID=a70b9f0c
DTITLE=Hotel Morphilia Orchester - Bonus Tracks - CD2
DYEAR=1900
DGENRE=
TTITLE0=Die Strasse ist nass
TTITLE1=Stimme
TTITLE2=Entzweit
TTITLE3=Nimm Deine Schrecken mir Dir
TTITLE4=Afrika
TTITLE5=Alpharhythmen
TTITLE6=Liebe ist ein Hospital
TTITLE7=Was ist im Hirn
TTITLE8=Sleep
TTITLE9=Kokain Cowboy
TTITLE10=Freiheitsfrau
TTITLE11=Vereinsamt
EXTD=
EXTT0=
EXTT1=
EXTT2=
EXTT3=
EXTT4=
EXTT5=
EXTT6=
EXTT7=
EXTT8=
EXTT9=
EXTT10=
EXTT11=
PLAYORDER=
